<?xml version="1.0" encoding="UTF-8"?>
<svg width="100" height="100" viewBox="0 0 100 100" fill="none" xmlns="http://www.w3.org/2000/svg">
    <title>favicon</title>
    <defs>
        <filter x="-93.3%" y="-81.2%" width="286.7%" height="262.4%" filterUnits="objectBoundingBox" id="filter-1">
            <feGaussianBlur stdDeviation="22" in="SourceGraphic"></feGaussianBlur>
        </filter>
        <filter x="-13.5%" y="-46.9%" width="126.9%" height="193.8%" filterUnits="objectBoundingBox" id="filter-2">
            <feGaussianBlur stdDeviation="20" in="SourceGraphic"></feGaussianBlur>
        </filter>
        <filter x="-23.9%" y="-22.5%" width="147.8%" height="145.1%" filterUnits="objectBoundingBox" id="filter-3">
            <feGaussianBlur stdDeviation="41" in="SourceGraphic"></feGaussianBlur>
        </filter>
    </defs>
    <g id="favicon" stroke="none" stroke-width="1" fill="none" fill-rule="evenodd">
        <g transform="translate(-0, 0)" fill-rule="nonzero">
            <!-- Background circle -->
            <circle cx="50" cy="50" r="48" fill="#B09480" />
            
            <!-- Inner glow -->
            <circle cx="50" cy="50" r="44" fill="#E7C7A2" />
            
            <!-- Stylized leaf/plant element -->
            <path d="M50 15C38 30 35 45 35 55C35 75 50 85 50 85C50 85 65 75 65 55C65 45 62 30 50 15Z" fill="#3B2F2F" />
            
            <!-- Circular accent -->
            <circle cx="50" cy="50" r="12" fill="#D5D1C7" />
            
            <!-- Stylized "S" representing "Salvaje" -->
            <path d="M54 44C57 45 59 48 59 51C59 55 56 58 52 58C48 58 45 55 45 51M46 50C43 49 41 46 41 43C41 39 44 36 48 36C52 36 55 39 55 43" stroke="#B09480" stroke-width="4" stroke-linecap="round" />
        </g>
    </g>
</svg>
